<?xml version="1.0" encoding="UTF-8"?>
<svg xmlns="http://www.w3.org/2000/svg" onmouseup="{ if(window.parent.document.onmouseup) window.parent.document.onmouseup(arguments[0]);}" xml:space="preserve" style="enable-background:new 0 0 36 36;" viewBox="0 0 36 36" y="0px" x="0px" id="S_Home_18_N_2x" version="1.1" xmlns:xlink="http://www.w3.org/1999/xlink"><style type="text/css">
	.st0{fill:#13DBE5;}
</style><path data-cppathid="10000" d="M35.3,20.3L18.8,3.7c-0.4-0.4-1.1-0.4-1.5,0L0.7,20.3c-0.4,0.4-0.4,1.1,0,1.5l2,2C2.8,23.9,3.1,24,3.3,24H4v9  c0,0.6,0.4,1,1,1h8c0.6,0,1-0.4,1-1V23c0-0.6,0.4-1,1-1h6c0.6,0,1,0.4,1,1v10c0,0.6,0.4,1,1,1h8c0.6,0,1-0.4,1-1v-9h0.7  c0.3,0,0.5-0.1,0.7-0.3l2-2C35.7,21.3,35.7,20.7,35.3,20.3z" class="st0"/></svg>